<?xml version="1.0" encoding="UTF-8" standalone="no"?><!DOCTYPE svg PUBLIC "-//W3C//DTD SVG 1.1//EN" "http://www.w3.org/Graphics/SVG/1.1/DTD/svg11.dtd"><svg width="100%" height="100%" viewBox="0 0 50 50" version="1.1" xmlns="http://www.w3.org/2000/svg" xmlns:xlink="http://www.w3.org/1999/xlink" xml:space="preserve" xmlns:serif="http://www.serif.com/" style="fill-rule:evenodd;clip-rule:evenodd;stroke-linejoin:round;stroke-miterlimit:2;"><path d="M25,31.25c1.736,0 3.212,-0.608 4.427,-1.823c1.215,-1.215 1.823,-2.691 1.823,-4.427c0,-1.736 -0.608,-3.212 -1.823,-4.427c-1.215,-1.215 -2.691,-1.823 -4.427,-1.823c-1.736,0 -3.212,0.608 -4.427,1.823c-1.215,1.215 -1.823,2.691 -1.823,4.427c0,1.736 0.608,3.212 1.823,4.427c1.215,1.215 2.691,1.823 4.427,1.823Zm0,4.167c-2.882,-0 -5.339,-1.016 -7.371,-3.048c-2.032,-2.032 -3.047,-4.488 -3.046,-7.369c0,-2.882 1.016,-5.339 3.048,-7.371c2.032,-2.032 4.488,-3.047 7.369,-3.046c2.882,0 5.339,1.016 7.371,3.048c2.032,2.032 3.047,4.488 3.046,7.369c-0,2.882 -1.016,5.339 -3.048,7.371c-2.032,2.032 -4.488,3.047 -7.369,3.046Zm-22.917,-8.334l0,-4.166l8.334,-0l-0,4.166l-8.334,0Zm37.5,0l0,-4.166l8.334,-0l-0,4.166l-8.334,0Zm-16.666,-16.666l-0,-8.334l4.166,0l0,8.334l-4.166,-0Zm-0,37.5l-0,-8.334l4.166,0l0,8.334l-4.166,-0Zm-9.688,-31.771l-5.156,-5.156l2.917,-2.917l5.156,5.156l-2.917,2.917Zm25.781,25.781l-5.156,-5.156l2.917,-2.917l5.156,5.156l-2.917,2.917Zm-2.239,-25.781l-2.917,-2.917l5.156,-5.156l2.917,2.917l-5.156,5.156Zm-25.781,25.781l-2.917,-2.917l5.156,-5.156l2.917,2.917l-5.156,5.156Z" style="fill:#f6f6f6;fill-rule:nonzero;"/></svg>